<svg width="61" height="44" viewBox="0 0 61 44" fill="none" xmlns="http://www.w3.org/2000/svg">
<rect y="0.000976562" width="61" height="44" fill="#535554"/>
<g clip-path="url(#clip0)">
<path d="M47.6556 10.001H25.3669C24.9738 10.0002 24.6134 10.2198 24.4337 10.5696C24.2515 10.924 24.2835 11.3509 24.5162 11.6746L32.6819 23.1775C32.6846 23.1814 32.6876 23.1852 32.6903 23.1891C32.987 23.5897 33.1474 24.0747 33.1484 24.5734V33.9517C33.1466 34.2295 33.2557 34.4962 33.4515 34.6933C33.6473 34.8903 33.9135 35.0009 34.1911 35.0009C34.3324 35.0009 34.472 34.9726 34.6023 34.9186L39.1908 33.1689C39.602 33.0435 39.8749 32.6556 39.8749 32.1883V24.5734C39.8757 24.075 40.0363 23.5897 40.3327 23.1891C40.3355 23.1852 40.3384 23.1814 40.3412 23.1775L48.5066 11.6741C48.7393 11.3506 48.7713 10.924 48.5891 10.5696C48.4094 10.2198 48.049 10.0002 47.6556 10.001ZM39.3095 22.4373C38.8535 23.0563 38.6068 23.8046 38.6054 24.5734V32.0342L34.4174 33.6309V24.5734C34.416 23.8046 34.1693 23.0563 33.713 22.4373L25.7855 11.27H47.2373L39.3095 22.4373Z" fill="white"/>
</g>
<defs>
<clipPath id="clip0">
<rect width="25" height="25" fill="white" transform="translate(24 10.001)"/>
</clipPath>
</defs>
</svg>
