<svg width="523" height="72" viewBox="0 0 523 72" fill="none" xmlns="http://www.w3.org/2000/svg">
<path d="M1.3 0.999996L1.3 -3.8147e-06H0.3V0.999996H1.3ZM17.5 0.999996H18.5V-3.8147e-06H17.5V0.999996ZM17.5 57.8H16.5V58.8H17.5V57.8ZM52.6 57.8H53.6V56.8H52.6V57.8ZM52.6 71V72H53.6V71H52.6ZM1.3 71H0.3V72H1.3V71ZM1.3 2L17.5 2V-3.8147e-06L1.3 -3.8147e-06L1.3 2ZM16.5 0.999996L16.5 57.8H18.5L18.5 0.999996H16.5ZM17.5 58.8L52.6 58.8V56.8L17.5 56.8V58.8ZM51.6 57.8V71H53.6V57.8H51.6ZM52.6 70L1.3 70V72L52.6 72V70ZM2.3 71L2.3 0.999996H0.3L0.3 71H2.3ZM61.6516 0.999996V-3.8147e-06H60.6516V0.999996H61.6516ZM77.8516 0.999996H78.8516V-3.8147e-06H77.8516V0.999996ZM77.8516 71V72H78.8516V71H77.8516ZM61.6516 71H60.6516V72H61.6516V71ZM61.6516 2L77.8516 2V-3.8147e-06L61.6516 -3.8147e-06V2ZM76.8516 0.999996L76.8516 71H78.8516L78.8516 0.999996H76.8516ZM77.8516 70H61.6516V72H77.8516V70ZM62.6516 71L62.6516 0.999996H60.6516L60.6516 71H62.6516ZM148.664 58H149.664V57H148.664V58ZM148.664 71V72H149.664V71H148.664ZM94.4641 71H93.4641V72H94.4641V71ZM94.4641 0.999996V-3.8147e-06H93.4641V0.999996H94.4641ZM147.364 0.999996H148.364V-3.8147e-06H147.364V0.999996ZM147.364 14V15L148.364 15V14L147.364 14ZM110.564 14V13H109.564V14H110.564ZM110.564 29.2H109.564V30.2H110.564V29.2ZM143.064 29.2H144.064V28.2H143.064V29.2ZM143.064 41.8V42.8H144.064V41.8H143.064ZM110.564 41.8V40.8H109.564V41.8H110.564ZM110.564 58H109.564V59H110.564V58ZM147.664 58L147.664 71H149.664L149.664 58H147.664ZM148.664 70L94.4641 70V72L148.664 72V70ZM95.4641 71L95.4641 0.999996H93.4641L93.4641 71H95.4641ZM94.4641 2L147.364 2V-3.8147e-06L94.4641 -3.8147e-06V2ZM146.364 0.999996V14L148.364 14V0.999996H146.364ZM147.364 13H110.564V15H147.364V13ZM109.564 14L109.564 29.2H111.564L111.564 14H109.564ZM110.564 30.2H143.064V28.2H110.564V30.2ZM142.064 29.2V41.8H144.064V29.2H142.064ZM143.064 40.8L110.564 40.8V42.8L143.064 42.8V40.8ZM109.564 41.8V58H111.564V41.8H109.564ZM110.564 59L148.664 59V57L110.564 57V59ZM212.954 34.6L212.491 33.7138L210.36 34.8275L212.652 35.5533L212.954 34.6ZM222.354 41L221.556 41.6029L221.563 41.6114L222.354 41ZM218.554 66.1L219.122 66.923L219.124 66.9214L218.554 66.1ZM161.554 71H160.554V72H161.554V71ZM161.554 0.999996V-3.8147e-06H160.554V0.999996H161.554ZM215.354 5.9L214.769 6.71133L214.775 6.71532L215.354 5.9ZM219.754 28.3L218.906 27.77L218.901 27.7777L218.896 27.7855L219.754 28.3ZM177.654 13.2V12.2H176.654V13.2H177.654ZM177.654 29.7H176.654V30.7H177.654V29.7ZM202.854 15.3L202.293 16.1279L202.302 16.1342L202.312 16.1403L202.854 15.3ZM206.154 56.7L205.617 55.8563L205.605 55.864L206.154 56.7ZM177.654 41.5V40.5H176.654V41.5H177.654ZM177.654 58.8H176.654V59.8H177.654V58.8ZM212.652 35.5533C216.478 36.765 219.429 38.7872 221.556 41.6028L223.152 40.3972C220.746 37.2128 217.43 34.9683 213.256 33.6467L212.652 35.5533ZM221.563 41.6114C223.672 44.3412 224.754 47.7491 224.754 51.9H226.754C226.754 47.3843 225.569 43.5255 223.145 40.3885L221.563 41.6114ZM224.754 51.9C224.754 57.7249 222.499 62.1429 217.984 65.2786L219.124 66.9214C224.209 63.3904 226.754 58.3417 226.754 51.9H224.754ZM217.986 65.277C213.492 68.3787 206.794 70 197.754 70V72C206.98 72 214.15 70.3546 219.122 66.923L217.986 65.277ZM197.754 70H161.554V72H197.754V70ZM162.554 71L162.554 0.999996H160.554L160.554 71H162.554ZM161.554 2L195.754 2V-3.8147e-06L161.554 -3.8147e-06V2ZM195.754 2C204.181 2 210.475 3.61661 214.769 6.71131L215.939 5.08869C211.167 1.65005 204.393 -3.8147e-06 195.754 -3.8147e-06V2ZM214.775 6.71532C219.113 9.79612 221.254 13.9268 221.254 19.2H223.254C223.254 13.2732 220.795 8.53721 215.933 5.08467L214.775 6.71532ZM221.254 19.2C221.254 22.4284 220.465 25.2752 218.906 27.77L220.602 28.83C222.376 25.9915 223.254 22.7716 223.254 19.2H221.254ZM218.896 27.7855C217.397 30.2841 215.272 32.26 212.491 33.7138L213.417 35.4862C216.503 33.8733 218.911 31.6492 220.611 28.8145L218.896 27.7855ZM176.654 13.2V29.7H178.654V13.2H176.654ZM177.654 30.7L193.754 30.7V28.7L177.654 28.7V30.7ZM193.754 30.7C197.844 30.7 201.11 29.9891 203.415 28.4279L202.293 26.7721C200.464 28.0109 197.664 28.7 193.754 28.7V30.7ZM203.415 28.4279C205.785 26.822 206.954 24.428 206.954 21.4H204.954C204.954 23.8387 204.056 25.578 202.293 26.7721L203.415 28.4279ZM206.954 21.4C206.954 18.3717 205.784 16.0002 203.396 14.4597L202.312 16.1403C204.057 17.2664 204.954 18.9616 204.954 21.4H206.954ZM203.415 14.4721C201.11 12.9109 197.844 12.2 193.754 12.2V14.2C197.664 14.2 200.464 14.8891 202.293 16.1279L203.415 14.4721ZM193.754 12.2L177.654 12.2V14.2L193.754 14.2V12.2ZM196.554 59.8C200.898 59.8 204.33 59.093 206.703 57.536L205.605 55.864C203.711 57.1069 200.743 57.8 196.554 57.8V59.8ZM206.691 57.5437C209.219 55.9345 210.454 53.4247 210.454 50.2H208.454C208.454 52.8419 207.488 54.6655 205.617 55.8563L206.691 57.5437ZM210.454 50.2C210.454 47.0136 209.25 44.5062 206.788 42.8459C204.396 41.233 200.935 40.5 196.554 40.5V42.5C200.773 42.5 203.761 43.217 205.67 44.5041C207.508 45.7438 208.454 47.5864 208.454 50.2H210.454ZM196.554 40.5H177.654V42.5H196.554V40.5ZM176.654 41.5V58.8H178.654V41.5H176.654ZM177.654 59.8H196.554V57.8H177.654V59.8ZM302.219 0.999996H303.219V-3.8147e-06H302.219V0.999996ZM302.219 71V72L303.219 72V71L302.219 71ZM286.019 71H285.019V72H286.019V71ZM286.019 42.3H287.019V41.3H286.019V42.3ZM254.219 42.3V41.3H253.219V42.3H254.219ZM254.219 71V72H255.219V71H254.219ZM238.019 71H237.019V72H238.019V71ZM238.019 0.999996V-3.8147e-06H237.019V0.999996H238.019ZM254.219 0.999996H255.219V-3.8147e-06H254.219V0.999996ZM254.219 28.6H253.219V29.6H254.219V28.6ZM286.019 28.6V29.6H287.019V28.6H286.019ZM286.019 0.999996V-3.8147e-06H285.019V0.999996H286.019ZM301.219 0.999996V71L303.219 71V0.999996H301.219ZM302.219 70H286.019V72H302.219V70ZM287.019 71V42.3H285.019V71H287.019ZM286.019 41.3H254.219V43.3H286.019V41.3ZM253.219 42.3V71H255.219V42.3H253.219ZM254.219 70H238.019V72H254.219V70ZM239.019 71L239.019 0.999996H237.019L237.019 71H239.019ZM238.019 2L254.219 2V-3.8147e-06L238.019 -3.8147e-06V2ZM253.219 0.999996V28.6H255.219V0.999996H253.219ZM254.219 29.6L286.019 29.6V27.6L254.219 27.6V29.6ZM287.019 28.6V0.999996H285.019V28.6H287.019ZM286.019 2L302.219 2V-3.8147e-06L286.019 -3.8147e-06V2ZM372.98 58H373.98V57H372.98V58ZM372.98 71V72H373.98V71H372.98ZM318.78 71H317.78V72H318.78V71ZM318.78 0.999996V-3.8147e-06H317.78V0.999996H318.78ZM371.68 0.999996H372.68V-3.8147e-06H371.68V0.999996ZM371.68 14V15H372.68V14H371.68ZM334.88 14V13H333.88V14H334.88ZM334.88 29.2H333.88V30.2H334.88V29.2ZM367.38 29.2H368.38V28.2H367.38V29.2ZM367.38 41.8V42.8H368.38V41.8H367.38ZM334.88 41.8V40.8H333.88V41.8H334.88ZM334.88 58H333.88V59H334.88V58ZM371.98 58V71H373.98V58H371.98ZM372.98 70H318.78V72H372.98V70ZM319.78 71V0.999996H317.78V71H319.78ZM318.78 2L371.68 2V-3.8147e-06L318.78 -3.8147e-06V2ZM370.68 0.999996V14H372.68V0.999996H370.68ZM371.68 13L334.88 13V15L371.68 15V13ZM333.88 14V29.2H335.88V14H333.88ZM334.88 30.2H367.38V28.2H334.88V30.2ZM366.38 29.2V41.8H368.38V29.2H366.38ZM367.38 40.8H334.88V42.8H367.38V40.8ZM333.88 41.8V58H335.88V41.8H333.88ZM334.88 59H372.98V57H334.88V59ZM430.47 71L429.648 71.5692L429.946 72H430.47V71ZM416.97 51.5L417.793 50.9308L417.494 50.5H416.97V51.5ZM402.07 51.5V50.5H401.07V51.5H402.07ZM402.07 71V72H403.07V71H402.07ZM385.87 71H384.87V72H385.87V71ZM385.87 0.999996V-3.8147e-06H384.87V0.999996H385.87ZM432.27 4.1L431.855 5.00992L431.861 5.01217L432.27 4.1ZM442.77 39.9L441.938 39.3453L441.936 39.3487L442.77 39.9ZM432.17 48.5L431.772 47.5829L430.651 48.0701L431.35 49.0722L432.17 48.5ZM447.87 71V72H449.787L448.69 70.4278L447.87 71ZM426.37 17.4L425.726 18.1649L425.732 18.1699L425.738 18.1749L426.37 17.4ZM402.07 14.2V13.2H401.07V14.2H402.07ZM402.07 38.6H401.07V39.6H402.07V38.6ZM426.37 35.4L427.014 36.1649L426.37 35.4ZM431.293 70.4308L417.793 50.9308L416.148 52.0692L429.648 71.5692L431.293 70.4308ZM416.97 50.5H416.17V52.5H416.97V50.5ZM416.17 50.5H402.07V52.5H416.17V50.5ZM401.07 51.5V71H403.07V51.5H401.07ZM402.07 70L385.87 70V72L402.07 72V70ZM386.87 71V0.999996H384.87V71H386.87ZM385.87 2L416.17 2V-3.8147e-06L385.87 -3.8147e-06V2ZM416.17 2C422.261 2 427.48 3.01526 431.855 5.0099L432.685 3.19009C427.994 1.0514 422.479 -3.8147e-06 416.17 -3.8147e-06V2ZM431.861 5.01217C436.306 7.00927 439.681 9.82361 442.032 13.4445L443.709 12.3555C441.126 8.37639 437.435 5.32406 432.68 3.18783L431.861 5.01217ZM442.032 13.4445C444.378 17.0594 445.57 21.3639 445.57 26.4H447.57C447.57 21.036 446.296 16.3406 443.709 12.3555L442.032 13.4445ZM445.57 26.4C445.57 31.4308 444.347 35.7316 441.938 39.3453L443.602 40.4547C446.26 36.4684 447.57 31.7692 447.57 26.4H445.57ZM441.936 39.3487C439.589 42.9015 436.216 45.6505 431.772 47.5829L432.569 49.4171C437.324 47.3495 441.019 44.3652 443.605 40.4513L441.936 39.3487ZM431.35 49.0722L447.05 71.5722L448.69 70.4278L432.99 47.9278L431.35 49.0722ZM447.87 70H430.47V72H447.87V70ZM431.17 26.4C431.17 22.2337 429.816 18.9206 427.002 16.6251L425.738 18.1749C427.991 20.0127 429.17 22.6996 429.17 26.4H431.17ZM427.014 16.6351C424.233 14.2927 420.265 13.2 415.27 13.2V15.2C420.009 15.2 423.441 16.2407 425.726 18.1649L427.014 16.6351ZM415.27 13.2L402.07 13.2V15.2L415.27 15.2V13.2ZM401.07 14.2V38.6H403.07V14.2H401.07ZM402.07 39.6H415.27V37.6H402.07V39.6ZM415.27 39.6C420.265 39.6 424.233 38.5073 427.014 36.1649L425.726 34.6351C423.441 36.5593 420.009 37.6 415.27 37.6V39.6ZM427.014 36.1649C429.812 33.8089 431.17 30.5068 431.17 26.4H429.17C429.17 30.0266 427.995 32.7245 425.726 34.6351L427.014 36.1649ZM504.005 71L503.183 71.5692L503.482 72H504.005V71ZM490.505 51.5L491.328 50.9308L491.029 50.5H490.505V51.5ZM475.605 51.5V50.5H474.605V51.5H475.605ZM475.605 71V72H476.605V71H475.605ZM459.405 71H458.405V72H459.405V71ZM459.405 0.999996V-3.8147e-06H458.405V0.999996H459.405ZM505.805 4.1L505.391 5.00992L505.396 5.01217L505.805 4.1ZM516.305 39.9L515.473 39.3453L515.471 39.3487L516.305 39.9ZM505.705 48.5L505.307 47.5829L504.186 48.0701L504.885 49.0722L505.705 48.5ZM521.405 71V72H523.323L522.226 70.4278L521.405 71ZM499.905 17.4L499.261 18.1649L499.267 18.1699L499.273 18.1749L499.905 17.4ZM475.605 14.2V13.2H474.605V14.2H475.605ZM475.605 38.6H474.605V39.6H475.605V38.6ZM499.905 35.4L500.55 36.1649L499.905 35.4ZM504.828 70.4308L491.328 50.9308L489.683 52.0692L503.183 71.5692L504.828 70.4308ZM490.505 50.5H489.705V52.5H490.505V50.5ZM489.705 50.5L475.605 50.5V52.5L489.705 52.5V50.5ZM474.605 51.5V71H476.605V51.5H474.605ZM475.605 70H459.405V72H475.605V70ZM460.405 71V0.999996H458.405V71H460.405ZM459.405 2L489.705 2V-3.8147e-06L459.405 -3.8147e-06V2ZM489.705 2C495.796 2 501.015 3.01526 505.391 5.0099L506.22 3.19009C501.529 1.0514 496.015 -3.8147e-06 489.705 -3.8147e-06V2ZM505.396 5.01217C509.841 7.00927 513.216 9.82361 515.567 13.4445L517.244 12.3555C514.661 8.37639 510.97 5.32406 506.215 3.18783L505.396 5.01217ZM515.567 13.4445C517.913 17.0594 519.105 21.3639 519.105 26.4H521.105C521.105 21.036 519.831 16.3406 517.244 12.3555L515.567 13.4445ZM519.105 26.4C519.105 31.4308 517.883 35.7316 515.473 39.3453L517.138 40.4547C519.795 36.4684 521.105 31.7692 521.105 26.4H519.105ZM515.471 39.3487C513.124 42.9015 509.751 45.6505 505.307 47.5829L506.104 49.4171C510.86 47.3495 514.554 44.3652 517.14 40.4513L515.471 39.3487ZM504.885 49.0722L520.585 71.5722L522.226 70.4278L506.526 47.9278L504.885 49.0722ZM521.405 70H504.005V72H521.405V70ZM504.705 26.4C504.705 22.2337 503.351 18.9206 500.538 16.6251L499.273 18.1749C501.526 20.0127 502.705 22.6996 502.705 26.4H504.705ZM500.55 16.6351C497.768 14.2927 493.8 13.2 488.805 13.2V15.2C493.544 15.2 496.976 16.2407 499.261 18.1649L500.55 16.6351ZM488.805 13.2H475.605V15.2H488.805V13.2ZM474.605 14.2V38.6H476.605V14.2H474.605ZM475.605 39.6L488.805 39.6V37.6L475.605 37.6V39.6ZM488.805 39.6C493.8 39.6 497.768 38.5073 500.55 36.1649L499.261 34.6351C496.976 36.5593 493.544 37.6 488.805 37.6V39.6ZM500.55 36.1649C503.347 33.8089 504.705 30.5068 504.705 26.4H502.705C502.705 30.0266 501.53 32.7245 499.261 34.6351L500.55 36.1649Z" fill="white" fill-opacity="0.3"/>
</svg>
