<svg width="1600" height="47" viewBox="0 0 1600 47" fill="none" xmlns="http://www.w3.org/2000/svg">
<rect x="4" width="1600" height="47" fill="#FCD127"/>
<g opacity="0.1">
<mask id="mask0" style="mask-type:alpha" maskUnits="userSpaceOnUse" x="-208" y="0" width="1881" height="48">
<path  d="M1672 47L1672 -0.000144958L-208 -6.43139e-05L-208 47.0001L1672 47Z" fill="black" fill-opacity="0.7"/>
</mask>
<g mask="url(#mask0)">
<path fill-rule="evenodd" clip-rule="evenodd" d="M329.331 -438.186V-376.001H417.158L964.354 313.65V315.315L1101.27 487.875H964.109V424.446H876.443L329.247 -265.204V-265.424L192.171 -438.186H329.331ZM-168.455 362.059L-305.615 189.192V362.059H-168.455ZM124.473 362.059L-305.615 -179.794V41.5976L-51.1876 362.262H124.473V362.059ZM-100.597 -438.186L329.247 103.562V103.782L583.675 424.446H759.336V424.244L329.491 -117.302V-117.521L75.0637 -438.186H-100.597ZM-305.615 -438.186V-327.389L241.581 362.262H329.247V424.244H466.407L329.491 251.685V251.465L-217.705 -438.186H-305.615ZM964.193 -312.37V-376.001H827.033L964.109 -203.239V-201.573L1511.31 488.077H1599.22V377.28L1052.02 -312.37H964.193ZM964.354 -53.6709L1394.2 487.875V488.077H1218.54L964.109 167.413V165.747L534.265 -376.001H709.926L964.354 -55.3366V-53.6709ZM1599.06 -139.502V-312.37H1461.9L1599.06 -139.502ZM1599.22 229.686L1169.13 -312.37H1344.79L1599.22 8.29425V229.686Z" fill="#1F1E1E"/>
</g>
</g>
</svg>
