<svg width="21" height="22" viewBox="0 0 21 22" fill="none" xmlns="http://www.w3.org/2000/svg">
<g clip-path="url(#clip0)">
<path d="M10.4997 0.5C6.22211 0.5 2.74219 3.97992 2.74219 8.2575C2.74219 9.66571 3.37374 11.1802 3.40021 11.2441C3.60418 11.7283 4.00666 12.4803 4.29688 12.9211L9.61579 20.9802C9.83345 21.3106 10.1556 21.5 10.4997 21.5C10.8438 21.5 11.1659 21.3106 11.3836 20.9807L16.7029 12.9211C16.9936 12.4803 17.3956 11.7283 17.5996 11.2441C17.6261 11.1807 18.2572 9.66617 18.2572 8.2575C18.2572 3.97992 14.7773 0.5 10.4997 0.5ZM16.7582 10.89C16.5761 11.324 16.2014 12.0235 15.9409 12.4187L10.6215 20.4783C10.5166 20.6375 10.4833 20.6375 10.3783 20.4783L5.05894 12.4187C4.79838 12.0235 4.42374 11.3235 4.24167 10.8896C4.23391 10.8709 3.65483 9.47679 3.65483 8.2575C3.65483 4.48325 6.72543 1.41265 10.4997 1.41265C14.2739 1.41265 17.3445 4.48325 17.3445 8.2575C17.3445 9.47862 16.7641 10.8763 16.7582 10.89Z" fill="#FE1E01"/>
<path d="M10.4995 4.15088C8.23476 4.15088 6.39258 5.99351 6.39258 8.25779C6.39258 10.5221 8.23476 12.3647 10.4995 12.3647C12.7642 12.3647 14.6064 10.5221 14.6064 8.25779C14.6064 5.99351 12.7642 4.15088 10.4995 4.15088ZM10.4995 11.4521C8.73854 11.4521 7.30523 10.0192 7.30523 8.25779C7.30523 6.49638 8.73854 5.06353 10.4995 5.06353C12.2604 5.06353 13.6938 6.49638 13.6938 8.25779C13.6938 10.0192 12.2604 11.4521 10.4995 11.4521Z" fill="#FE1E01"/>
</g>
<defs>
<clipPath id="clip0">
<rect width="21" height="21" fill="white" transform="translate(0 0.5)"/>
</clipPath>
</defs>
</svg>
