<svg width="113" height="112" viewBox="0 0 113 112" fill="none" xmlns="http://www.w3.org/2000/svg">
<circle cx="56.9976" cy="56.001" r="38.1538" fill="white" fill-opacity="0.5"/>
<path d="M56.998 94.0809C35.942 94.0809 18.918 77.0569 18.918 56.0009C18.918 34.9449 35.942 17.9209 56.998 17.9209C78.054 17.9209 95.078 34.9449 95.078 56.0009C95.078 77.0569 78.054 94.0809 56.998 94.0809ZM56.998 22.4009C38.406 22.4009 23.398 37.4089 23.398 56.0009C23.398 74.5929 38.406 89.6009 56.998 89.6009C75.59 89.6009 90.598 74.5929 90.598 56.0009C90.598 37.4089 75.59 22.4009 56.998 22.4009Z" fill="#C4C4C4"/>
<path d="M45.7979 75.4892V36.5132L79.3979 56.0012L45.7979 75.4892ZM50.2779 44.1292V67.6492L70.4379 55.7772L50.2779 44.1292Z" fill="#C4C4C4"/>
</svg>
